<svg xmlns="http://www.w3.org/2000/svg" viewBox="0 0 500 500"><path d="M392.46 357.27c1.56 1.2 1.39 2.91-.49 4L289 420.74a8.3 8.3 0 0 1-7.49 0L84.59 307.07c-1.91-1.1-2.06-2.83-.44-4a8.36 8.36 0 0 0-3.31 6.2v4.95a8.31 8.31 0 0 0 3.75 6.5l196.85 113.63a8.26 8.26 0 0 0 7.5 0l103-59.46a8.28 8.28 0 0 0 3.75-6.49v-5a8.4 8.4 0 0 0-3.23-6.13" style="fill:#455a64"/><path d="M392 356.94 195.09 243.27a8.3 8.3 0 0 0-7.49 0l-103 59.48c-2.07 1.19-2.07 3.13 0 4.32l196.86 113.67a8.3 8.3 0 0 0 7.49 0l103-59.48c2.05-1.19 2.05-3.13.05-4.32m-26.71-9.19c1.77 1 1.77 2.68 0 3.7l-93.66 54.09a7.14 7.14 0 0 1-6.43 0L111.88 317c-1.77-1-1.77-2.69 0-3.71l93.67-54.08c1.77-1 3.62-1.62 5.39-.6Z" style="fill:#37474f"/><path d="M84.15 303a8.36 8.36 0 0 0-3.31 6.2v4.95a8.32 8.32 0 0 0 3.75 6.5l196.85 113.7a7.8 7.8 0 0 0 3.76.9v-13.62a7.7 7.7 0 0 1-3.75-.89L84.59 307.07c-1.91-1.07-2.06-2.83-.44-4.07" style="fill:#263238"/><path d="M146 278.85c1.39-.8 1.39-2.1 0-2.9a5.55 5.55 0 0 0-5 0c-1.39.8-1.39 2.1 0 2.9a5.55 5.55 0 0 0 5 0"/><path d="M336.64 387.62c3.27-1.88 3.27-4.94 0-6.82a13 13 0 0 0-11.83 0c-3.27 1.88-3.27 4.94 0 6.82a13 13 0 0 0 11.83 0Z" style="fill:none;stroke:#e6e6e6;stroke-miterlimit:10"/><path d="m143.49 288.47 19.4-11.19c1.15-.67 1.21-1.72.13-2.35a4.51 4.51 0 0 0-4.02.07l-19.4 11.19c-1.15.67-1.21 1.72-.13 2.35a4.51 4.51 0 0 0 4.02-.07"/><path d="M210.94 258.65c-1.77-1-3.62-.43-5.39.6l-93.67 54.08c-1.77 1-1.77 2.68 0 3.71l153.28 88.49a7.14 7.14 0 0 0 6.43 0l93.66-54.09c1.78-1 1.78-2.68 0-3.7Z" style="fill:#b59060"/><path d="M210.94 258.65c-1.77-1-3.62-.43-5.39.6l-93.67 54.08c-1.77 1-1.77 2.68 0 3.71l153.28 88.49a7.14 7.14 0 0 0 6.43 0l93.66-54.09c1.78-1 1.78-2.68 0-3.7Z" style="fill:#fff;opacity:.85"/><path d="m122.67 318.19-1-.58a.24.24 0 0 1 0-.45l.11-.06a.83.83 0 0 1 .78 0l1 .57c.21.13.21.33 0 .45l-.11.07a.89.89 0 0 1-.78 0M124.45 317.16l-1.73-1c-.21-.12-.21-.32 0-.45l.11-.06a.89.89 0 0 1 .78 0l1.73 1c.21.12.21.32 0 .45l-.11.06a.89.89 0 0 1-.78 0M126.23 316.13l-2.45-1.41c-.22-.13-.22-.33 0-.45l.11-.07a.89.89 0 0 1 .78 0l2.45 1.42a.24.24 0 0 1 0 .45l-.11.06a.83.83 0 0 1-.78 0M128 315.11l-4.23-2.45c-.22-.12-.22-.32 0-.45l.11-.06a.86.86 0 0 1 .78 0l4.22 2.44c.22.13.22.33 0 .45l-.1.07a.89.89 0 0 1-.78 0M133.11 312.49a.27.27 0 0 1-.19-.05l-.62-.36-2 1.15a.26.26 0 0 1-.29 0l-.23-.13-.1-.07v-.1l-.1-2.51a.3.3 0 0 1 0-.11.35.35 0 0 1 .12-.09l.27-.16a.6.6 0 0 1 .23-.08.4.4 0 0 1 .21.06l2.17 1.25.44-.25a.5.5 0 0 1 .22-.08.36.36 0 0 1 .2.06l.15.09c.07 0 .1.07.09.11s0 .07-.13.12l-.44.26.62.36c.07 0 .1.07.09.11s-.05.08-.14.13l-.34.19a.42.42 0 0 1-.23.1m-1.21-.79-1.55-.89.1 1.73ZM135.1 310.91a3.6 3.6 0 0 1-2-.49c-.62-.36-.9-.75-.85-1.17s.44-.83 1.15-1.24a5.4 5.4 0 0 1 .88-.42 4.4 4.4 0 0 1 .83-.23.18.18 0 0 1 .13 0 .1.1 0 0 1 0 .05l.09.26a.06.06 0 0 1 0 .08h-.11a3.8 3.8 0 0 0-1.22.47c-.48.27-.74.56-.78.85s.18.58.66.85a2.66 2.66 0 0 0 1.46.39 3 3 0 0 0 1.44-.43 4 4 0 0 0 .45-.3 1.4 1.4 0 0 0 .3-.29l-1-.58-.83.48a.6.6 0 0 1-.23.08.4.4 0 0 1-.2-.06l-.14-.08q-.1-.06-.09-.12s.05-.07.13-.12l1.33-.77a.56.56 0 0 1 .26-.08.43.43 0 0 1 .23.07l1.44.83a.22.22 0 0 1 .1.08s0 .05 0 .09a3.14 3.14 0 0 1-1.26 1.09 4.7 4.7 0 0 1-2.17.71M162.78 291.48l2.35 1.36a.72.72 0 0 0 .64 0l2.37-1.36c.17-.11.17-.27 0-.37l-2.36-1.36a.66.66 0 0 0-.64 0l-2.36 1.36c-.18.1-.18.26 0 .37" style="fill:#455a64"/><path d="M164.41 289.63a2.2 2.2 0 0 0-1-.22 2.1 2.1 0 0 0-1 .22c-.46.27-.46.68 0 .94l.81.47.59-.12-.81-.46a.38.38 0 0 1 0-.71.9.9 0 0 1 .42-.11.74.74 0 0 1 .41.11l.81.47.6-.12ZM207.32 264.82a2.3 2.3 0 0 0-1.14.26l-6 3.45c-.52.29-.52.76 0 1.06l2.18 1.25a2.3 2.3 0 0 0 1.14.26 3.3 3.3 0 0 0 .55-.05 1.7 1.7 0 0 0 .58-.21l6-3.44c.51-.3.51-.77 0-1.06l-2.18-1.26a2.25 2.25 0 0 0-1.13-.26m-3.8 6a1.05 1.05 0 0 1-.49-.13l-2.17-1.26a.43.43 0 0 1 0-.81l6-3.44a.9.9 0 0 1 .31-.12h.18a1 1 0 0 1 .48.14l2.17 1.25a.43.43 0 0 1 0 .81l-6 3.45a1 1 0 0 1-.48.14Z" style="fill:#455a64"/><path d="m203.69 270.43-.08-.05-2-1.13a.32.32 0 0 1 0-.6l5.38-3.1a.3.3 0 0 1 .11-.05l.08.05 2 1.13a.32.32 0 0 1 0 .59l-5.38 3.11ZM208.76 264.92a1.5 1.5 0 0 1 1.21.23l.4.24c.45.25.64.57.43.71l-.39.24-2-1.19ZM174.59 323.68a9.64 9.64 0 0 0 4.2-1.16c2.44-1.41 3.07-3.33-.8-5.74a4.78 4.78 0 0 1-2.54 3.42c-3.32 1.92-7.1 2.41-10.15.66s-2-4.35 1.34-6.27a14.14 14.14 0 0 1 14.1.05c5.65 3.26 4.38 6.71.38 9a15.9 15.9 0 0 1-6.82 2Zm1.41-7.94c-2.93-1.27-5.42-1.09-7.31 0-1.59.91-1.91 2.24-.15 3.25a5.5 5.5 0 0 0 5.68-.27 3.09 3.09 0 0 0 1.78-2.98M183 309.45a4.38 4.38 0 0 1 4-.28c1 .6.81 1.6-.47 2.33a4.44 4.44 0 0 1-4.07.29c-1.03-.59-.77-1.6.54-2.34m7.81 4.51a4.37 4.37 0 0 1 4-.27c1 .59.81 1.59-.47 2.33a4.47 4.47 0 0 1-4.07.29c-1.02-.59-.77-1.61.51-2.31ZM192.13 308.51c-4.91-2.84-4.91-5.79-.89-8.12s9.16-2.31 14.06.52 5 5.87 1 8.2-9.25 2.24-14.17-.6m9.81-5.67c-4.11-2.37-6.75-2.35-8.64-1.26s-1.93 2.62 2.18 5 6.93 2.42 8.79 1.35 1.79-2.71-2.33-5.09M207.77 299.48c-4.92-2.84-4.92-5.79-.9-8.11s9.17-2.31 14.06.51 5.06 5.88 1 8.2-9.25 2.24-14.16-.6m9.81-5.66c-4.12-2.38-6.76-2.36-8.65-1.27s-1.93 2.62 2.19 5 6.93 2.41 8.78 1.34 1.79-2.7-2.32-5.07" style="fill:#455a64"/><path d="m182.56 345.63 78.68-45.42a6.65 6.65 0 0 1 6 0l20.11 11.61c1.66 1 1.66 2.51 0 3.47l-78.65 45.42a6.65 6.65 0 0 1-6 0l-20.14-11.61c-1.66-.96-1.66-2.51 0-3.47" style="fill:#b59060"/><path d="m191 347.17 14.08 8.12a2.82 2.82 0 0 0 2.59 0l20.75-12c.72-.42.72-1.09 0-1.5l-14.08-8.13a2.88 2.88 0 0 0-2.59 0l-20.75 12a.79.79 0 0 0 0 1.51" style="fill:#fafafa"/><path d="m212.24 343.26 16.69-.66-16.63-.25.67-8.97-2.73 11.07-19.79 1.96 16.16-.76-.4 9.95 1.24-9.99 4.63-.22z" style="fill:#b59060"/><path d="m221 329.42 20.33-11.69a3.62 3.62 0 0 1 3.27 0c.89.51.86 1.35-.07 1.89l-20.33 11.69a3.62 3.62 0 0 1-3.27 0c-.88-.51-.84-1.31.07-1.89M227.27 333l41.2-23.81a3.62 3.62 0 0 1 3.27 0c.89.51.86 1.36-.07 1.89l-41.2 23.81a3.65 3.65 0 0 1-3.28 0c-.88-.48-.85-1.32.08-1.89M233.52 336.64l41.21-23.81a3.62 3.62 0 0 1 3.27 0c.88.51.85 1.36-.07 1.89l-41.21 23.81a3.62 3.62 0 0 1-3.27 0c-.89-.53-.85-1.35.07-1.89" style="fill:#fafafa"/><path d="m173.55 181.54 133.38-77 5.34 3.08a5.57 5.57 0 0 1 2.5 4.35v98.39a5.56 5.56 0 0 1-2.5 4.35l-128.37 74.1a5.61 5.61 0 0 1-5 0l-2.82-1.63a5.59 5.59 0 0 1-2.51-4.35Z" style="fill:#b59060"/><path d="m173.55 181.54 133.38-77 5.34 3.08a5.57 5.57 0 0 1 2.5 4.35v98.39a5.56 5.56 0 0 1-2.5 4.35l-128.37 74.1a5.61 5.61 0 0 1-5 0l-2.82-1.63a5.59 5.59 0 0 1-2.51-4.35Z" style="opacity:.05"/><path d="m306.19 95.88.55-.3-2.07-1.2a4 4 0 0 0-.56-.26l-58.7-21.75a4 4 0 0 0-4.5 1.43l-65.67 95.89a11.44 11.44 0 0 0-1.69 5.48v6.37l2 1.18 131.35-78.19v-6.37a4.34 4.34 0 0 0-.71-2.28" style="fill:#b59060"/><path d="M243.62 74.27a3.3 3.3 0 0 0-.68.72l-65.67 95.89a10.2 10.2 0 0 0-1.22 2.74l-2-1.18a13 13 0 0 1 .53-1.45c.09-.2.18-.39.28-.58v-.09a5 5 0 0 1 .35-.58l65.69-95.93a3 3 0 0 1 .33-.4l.35-.32Z" style="opacity:.1"/><path d="M306.71 95.58a3.2 3.2 0 0 0-.56-.27l-58.71-21.76a4 4 0 0 0-3.82.72l-2-1.18a4.07 4.07 0 0 1 3.83-.72l58.7 21.75a3 3 0 0 1 .55.27Z" style="fill:#fff;opacity:.35000000000000003"/><path d="M174.89 170.27a6 6 0 0 1 .35-.58 6 6 0 0 0-.35.58M241.24 73.41a2.7 2.7 0 0 1 .35-.32 2 2 0 0 0-.35.32M174 172.44a13 13 0 0 1 .53-1.46 13 13 0 0 0-.53 1.46M174.56 170.94c.09-.2.19-.39.28-.57-.09.18-.19.37-.28.57" style="fill:#b59060"/><path d="M174.84 170.37v-.1c0-.03.02.07 0 .1M240.91 73.8a2.4 2.4 0 0 1 .33-.39 2 2 0 0 0-.33.39" style="opacity:.2"/><path d="m242.94 75-65.66 95.9a11.27 11.27 0 0 0-1.7 5.47v6.37l133.38-77v-6.4a4.64 4.64 0 0 0-2.81-4l-58.7-21.75a4.05 4.05 0 0 0-4.51 1.41" style="fill:#b59060"/><path d="m190.1 275.41-4.28-2.47a2.58 2.58 0 0 1-1-2.33V137.25a7.66 7.66 0 0 1 1.2-3.81l4.35 2.5a7.6 7.6 0 0 0-1.2 3.83v133.31a2.61 2.61 0 0 0 .93 2.33" style="fill:#e0e0e0"/><path d="m192.77 133.4 107.14-61.84c2-1.18 3.67-.23 3.67 2.12V207a8.11 8.11 0 0 1-3.67 6.37L192.77 275.2c-2 1.17-3.67.22-3.67-2.13v-133.3a8.14 8.14 0 0 1 3.67-6.37" style="fill:#f0f0f0"/><path d="m298.16 68.79 4.2 2.44a2.6 2.6 0 0 0-2.46.35l-107.13 61.83a7.1 7.1 0 0 0-2.48 2.53l-4.35-2.5a7.4 7.4 0 0 1 2.47-2.55L295.55 69a2.52 2.52 0 0 1 2.61-.23Z" style="fill:#fafafa"/><path d="m201.13 140.38 89.09-51.44c1.2-.69 2.17-.2 2.17 1.1a4.64 4.64 0 0 1-2.17 3.59l-89.09 51.44c-1.2.69-2.17.2-2.17-1.09a4.64 4.64 0 0 1 2.17-3.6M201.13 149.73l89.09-51.44c1.2-.69 2.17-.2 2.17 1.1a4.64 4.64 0 0 1-2.17 3.59l-89.09 51.44c-1.2.69-2.17.2-2.17-1.09a4.64 4.64 0 0 1 2.17-3.6M201.13 159.08l89.09-51.44c1.2-.69 2.17-.2 2.17 1.09a4.64 4.64 0 0 1-2.17 3.6l-89.09 51.44c-1.2.69-2.17.2-2.17-1.09a4.64 4.64 0 0 1 2.17-3.6M201.13 168.43 290.22 117c1.2-.69 2.17-.2 2.17 1.09a4.64 4.64 0 0 1-2.17 3.6l-89.09 51.44c-1.2.69-2.17.2-2.17-1.1a4.64 4.64 0 0 1 2.17-3.6M201.13 177.78l89.09-51.44c1.2-.69 2.17-.2 2.17 1.09a4.64 4.64 0 0 1-2.17 3.6l-89.09 51.44c-1.2.69-2.17.2-2.17-1.1a4.64 4.64 0 0 1 2.17-3.59M201.13 187.13l89.09-51.44c1.2-.69 2.17-.2 2.17 1.09a4.64 4.64 0 0 1-2.17 3.6l-89.09 51.44c-1.2.69-2.17.2-2.17-1.1a4.64 4.64 0 0 1 2.17-3.59M201.13 196.48 290.22 145c1.2-.69 2.17-.2 2.17 1.09a4.64 4.64 0 0 1-2.17 3.6l-89.09 51.44c-1.2.69-2.17.2-2.17-1.1a4.64 4.64 0 0 1 2.17-3.55M201.13 205.83l89.09-51.44c1.2-.7 2.17-.2 2.17 1.09a4.64 4.64 0 0 1-2.17 3.6l-89.09 51.44c-1.2.69-2.17.2-2.17-1.1a4.64 4.64 0 0 1 2.17-3.59" style="fill:#e0e0e0"/><path d="M311.39 211.66a1.2 1.2 0 0 1-.14.2l-55.58-24.65a9.57 9.57 0 0 0-12 3.7l-59.42 95.34-2.2 1.27a1.79 1.79 0 0 1-1.7.19l61.11-98.06a9.6 9.6 0 0 1 12-3.71Z" style="fill:#b59060"/><path d="m238.18 199.58.14-.12-54.09 86.8-2.2 1.27a1.82 1.82 0 0 1-1.7.19L236 198.3ZM311.39 211.67a1.2 1.2 0 0 1-.14.2l-55.59-24.66a9.57 9.57 0 0 0-12 3.7l-2.2-1.28a9.6 9.6 0 0 1 12-3.68Z" style="fill:#fff;opacity:.4"/><path d="M314.73 111.33c-.12-.72-.5-.92-1-.58a2.9 2.9 0 0 0-.64.66l-.28.39L258 188.16l-8.19 11.41a4.67 4.67 0 0 1-4.51 1.69l-7.07-1.68-54-12.84a2.75 2.75 0 0 0-1.1 0 2 2 0 0 0-.41.13l1.49-.86 52 12.37 7.09 1.62a4.65 4.65 0 0 0 4.51-1.69l8.19-11.4 55.12-76.75a2.2 2.2 0 0 1 .62-.57l-4.74-2.73 2-1.15 3.3 1.9a5.72 5.72 0 0 1 2.43 3.72" style="fill:#b59060"/><path d="m258 188.16-8.19 11.41a4.67 4.67 0 0 1-4.51 1.69l-7.07-1.68.14-.12.34-.54 4.63 1.1a4.65 4.65 0 0 0 4.51-1.69l8.11-11.28Z" style="fill:#fff;opacity:.4"/><path d="m312.26 107.61-3.3-1.9-2 1.15 4.77 2.75a2.2 2.2 0 0 0-.62.57L256 186.93l-.08.11 2 1.11 54.88-76.35.28-.39a2.9 2.9 0 0 1 .64-.66c.49-.34.87-.14 1 .58a5.72 5.72 0 0 0-2.46-3.72" style="opacity:.1"/><path d="m185.31 188.34-11.76-6.8v101.29a5.59 5.59 0 0 0 2.51 4.35l2.82 1.63a5.61 5.61 0 0 0 5 0l1.41-.82Z" style="fill:#b59060"/><path d="m185.31 188.34-11.76-6.8v101.29a5.59 5.59 0 0 0 2.51 4.35l2.82 1.63a5.61 5.61 0 0 0 5 0l1.41-.82Z" style="opacity:.15"/><path d="M312.81 111.8v97.32a5 5 0 0 1-.78 2.54 5.2 5.2 0 0 1-1.47 1.64l-.09.06-.17.11-128.36 74.1a2.4 2.4 0 0 1-.49.23 3 3 0 0 1 0-.45V189a2.18 2.18 0 0 1 2.82-2.22l54 12.84 7.07 1.68a4.67 4.67 0 0 0 4.51-1.69l8.15-11.45Z" style="fill:#455a64"/><path d="M314.78 112v98.39a5.1 5.1 0 0 1-.78 2.54 5.5 5.5 0 0 1-1.47 1.65l-.1.05a2 2 0 0 1-.16.11L183.91 288.8a1.79 1.79 0 0 1-1.71.2 1.52 1.52 0 0 1-.75-1.2 3 3 0 0 1 0-.45V189a2.18 2.18 0 0 1 2.82-2.22l54 12.84 7.07 1.68a4.67 4.67 0 0 0 4.51-1.69l8.15-11.45 54.85-76.36.28-.39c.87-1.29 1.65-1.05 1.65.59" style="fill:#b59060"/><path d="m312.27 214.7.16-.11.1-.05a5.5 5.5 0 0 0 1.47-1.65 5.13 5.13 0 0 0 .77-2.49L258 188.16l38 35.93Z" style="fill:#b59060"/><path d="m312.27 214.7.16-.11.1-.05a5.5 5.5 0 0 0 1.47-1.65 5.13 5.13 0 0 0 .77-2.49L258 188.16l38 35.93Z" style="opacity:.2"/><path d="M181.4 287.36a1.73 1.73 0 0 0 .78 1.65 1.79 1.79 0 0 0 1.71-.2l44.19-25.51 10.09-63.71-56.77 86.13Z" style="fill:#b59060"/><path d="M243.63 190.9 182.17 289a1.73 1.73 0 0 1-.78-1.65v-1.63L235.62 199l.42-.67 5.39-8.64Z" style="opacity:.15"/><path d="M314 212.89a5.5 5.5 0 0 1-1.47 1.65l-.1.05-128.52 74.21a1.79 1.79 0 0 1-1.71.2l61.46-98.13a9.66 9.66 0 0 1 12.09-3.71Z" style="fill:#b59060"/><path d="M314 212.9a5.2 5.2 0 0 1-1.47 1.64l-.09.06-128.54 74.21a1.81 1.81 0 0 1-1.71.19l1.71-2.72 126.31-72.94.1-.06a5.1 5.1 0 0 0 1.33-1.44Z" style="fill:#b59060"/><path d="m174 172.44 2 1.18a10 10 0 0 0-.47 2.74v6.36l-2-1.18v-6.37a10 10 0 0 1 .47-2.73" style="opacity:.15"/><path d="m186.08 186.42-1.88-.45-1.49.86-2.06-1.19-5.07-2.92 1.97-1.17z" style="fill:#b59060"/><path d="m186.08 186.42-8.52-4.86-2 1.17 5.07 2.92 2.06 1.19a1.3 1.3 0 0 1 .38-.12 2.75 2.75 0 0 1 1.1 0l4.15 1 47.3 11.28.42-.67Z" style="opacity:.1"/><path d="m338.5 190.34-9.49-5.5-.08-.05c-4.14-2.34-9.83-2-16.12 1.65-12.66 7.31-22.93 25.09-22.93 39.71 0 7.3 2.57 12.43 6.7 14.83l8.65 5 2-3.39a23.2 23.2 0 0 0 6.58-2.56c12.66-7.31 22.93-25.09 22.93-39.71a24.4 24.4 0 0 0-.72-5.86Z" style="fill:#f28f8f"/><path d="M290.72 218.46a37 37 0 0 0-.87 7.7c0 7.3 2.57 12.43 6.7 14.83l8.65 5 2-3.39a23.2 23.2 0 0 0 6.58-2.56 36.7 36.7 0 0 0 6.25-4.61Z" style="opacity:.15"/><path d="M321.81 191.65c-12.66 7.31-22.93 25.09-22.93 39.71s10.27 20.55 22.93 13.24 22.93-25.09 22.93-39.71-10.26-20.55-22.93-13.24" style="fill:#ffa8a7"/><path d="M330.87 212v-5.62c0-6.41-3.9-9.36-8.7-6.58-4.81 2.78-8.71 10.22-8.71 16.63v5a19.9 19.9 0 0 1-2.93 9.81 5.4 5.4 0 0 0-.71 2.57c0 1.61 1 2.36 2.19 1.66l20.33-11.74a5.26 5.26 0 0 0 2.19-4.19 2.05 2.05 0 0 0-.64-1.7c-1.84-.78-3.02-2.84-3.02-5.84M326.34 229c0 3.08-1.87 6.65-4.17 8s-4.18-.08-4.18-3.15Z" style="fill:#fff"/></svg>