<svg class="animated" id="freepik_stories-sent-message" xmlns="http://www.w3.org/2000/svg" viewBox="0 0 500 500" version="1.1" xmlns:xlink="http://www.w3.org/1999/xlink" xmlns:svgjs="http://svgjs.com/svgjs"><style>svg#freepik_stories-sent-message:not(.animated) .animable {opacity: 0;}svg#freepik_stories-sent-message.animated #freepik--Line--inject-1 {animation: 6s Infinite  linear wind;animation-delay: 0s;}svg#freepik_stories-sent-message.animated #freepik--Envelope--inject-1 {animation: 3s Infinite  linear wind;animation-delay: 0s;}svg#freepik_stories-sent-message.animated #freepik--paper-plane--inject-1 {animation: 3s Infinite  linear wind;animation-delay: 0s;}            @keyframes wind {                0% {                    transform: rotate( 0deg );                }                25% {                    transform: rotate( 1deg );                }                75% {                    transform: rotate( -1deg );                }            }        .animator-hidden { display: none; }</style><g id="freepik--background-complete--inject-1" class="animable animator-hidden" style="transform-origin: 250px 220.775px;"><rect y="382.4" width="500" height="0.25" style="fill: rgb(235, 235, 235); transform-origin: 250px 382.525px;" id="el7bxaj4s9fhh" class="animable"></rect><rect x="416.78" y="398.49" width="33.12" height="0.25" style="fill: rgb(235, 235, 235); transform-origin: 433.34px 398.615px;" id="el5nt6ntfmyxm" class="animable"></rect><rect x="322.53" y="401.21" width="8.69" height="0.25" style="fill: rgb(235, 235, 235); transform-origin: 326.875px 401.335px;" id="elggbqav6pwo" class="animable"></rect><rect x="396.59" y="389.21" width="19.19" height="0.25" style="fill: rgb(235, 235, 235); transform-origin: 406.185px 389.335px;" id="eli80tp70jttb" class="animable"></rect><rect x="52.46" y="390.89" width="43.19" height="0.25" style="fill: rgb(235, 235, 235); transform-origin: 74.055px 391.015px;" id="eldb959svt9w5" class="animable"></rect><rect x="104.56" y="390.89" width="6.33" height="0.25" style="fill: rgb(235, 235, 235); transform-origin: 107.725px 391.015px;" id="elcy6vjp1pk7a" class="animable"></rect><rect x="131.47" y="395.11" width="93.68" height="0.25" style="fill: rgb(235, 235, 235); transform-origin: 178.31px 395.235px;" id="el5oemtj2f0o4" class="animable"></rect><path d="M237,337.8H43.91a5.71,5.71,0,0,1-5.7-5.71V60.66A5.71,5.71,0,0,1,43.91,55H237a5.71,5.71,0,0,1,5.71,5.71V332.09A5.71,5.71,0,0,1,237,337.8ZM43.91,55.2a5.46,5.46,0,0,0-5.45,5.46V332.09a5.46,5.46,0,0,0,5.45,5.46H237a5.47,5.47,0,0,0,5.46-5.46V60.66A5.47,5.47,0,0,0,237,55.2Z" style="fill: rgb(235, 235, 235); transform-origin: 140.46px 196.4px;" id="eljbuty88d45" class="animable"></path><path d="M453.31,337.8H260.21a5.72,5.72,0,0,1-5.71-5.71V60.66A5.72,5.72,0,0,1,260.21,55h193.1A5.71,5.71,0,0,1,459,60.66V332.09A5.71,5.71,0,0,1,453.31,337.8ZM260.21,55.2a5.47,5.47,0,0,0-5.46,5.46V332.09a5.47,5.47,0,0,0,5.46,5.46h193.1a5.47,5.47,0,0,0,5.46-5.46V60.66a5.47,5.47,0,0,0-5.46-5.46Z" style="fill: rgb(235, 235, 235); transform-origin: 356.75px 196.4px;" id="elpllfc8h428r" class="animable"></path><rect x="271.25" y="96.78" width="127.06" height="285.62" style="fill: rgb(240, 240, 240); transform-origin: 334.78px 239.59px;" id="eld3qo8f60jb" class="animable"></rect><rect x="273.93" y="96.78" width="124.38" height="285.62" style="fill: rgb(245, 245, 245); transform-origin: 336.12px 239.59px;" id="el9tp358ic9mp" class="animable"></rect><g id="elv7kwx9n4t8"><rect x="199.79" y="184.98" width="272.66" height="109.22" style="fill: rgb(240, 240, 240); transform-origin: 336.12px 239.59px; transform: rotate(90deg);" class="animable"></rect></g><path d="M292.24,154h0A29.78,29.78,0,0,1,322,124.19h28.2A29.77,29.77,0,0,1,380,154H292.24Z" style="fill: rgb(250, 250, 250); transform-origin: 336.12px 139.095px;" id="el0jhkt3pb5hig" class="animable"></path><g id="el9p4tnrg797a"><rect x="303.55" y="282.52" width="65.14" height="87.75" style="fill: rgb(245, 245, 245); transform-origin: 336.12px 326.395px; transform: rotate(90deg);" class="animable"></rect></g><g id="el6okqxszww6a"><rect x="292.24" y="172.33" width="38.71" height="113.09" style="fill: rgb(245, 245, 245); transform-origin: 311.595px 228.875px; transform: rotate(180deg);" class="animable"></rect></g><g id="elg7pa8e9hipm"><rect x="341.29" y="172.33" width="38.71" height="113.09" style="fill: rgb(245, 245, 245); transform-origin: 360.645px 228.875px; transform: rotate(180deg);" class="animable"></rect></g><path d="M366,228.37h15.85a2.46,2.46,0,0,0,2.46-2.46h0a2.47,2.47,0,0,0-2.46-2.46H366a2.46,2.46,0,0,0-2.46,2.46h0A2.46,2.46,0,0,0,366,228.37Z" style="fill: rgb(224, 224, 224); transform-origin: 373.925px 225.91px;" id="el1d1qrfvu8th" class="animable"></path><g id="el3vhzl4gnlgq"><rect x="253.41" y="238.61" width="272.66" height="1.97" style="fill: rgb(240, 240, 240); transform-origin: 389.74px 239.595px; transform: rotate(90deg);" class="animable"></rect></g><path d="M70.39,271.43H191.28V100.32c0-13.63-120.89-13.63-120.89,0Z" style="fill: rgb(224, 224, 224); transform-origin: 130.835px 180.764px;" id="elbu2vgu7k1sn" class="animable"></path><path d="M73.17,271.43H194.05V100.32c0-13.63-120.89-13.63-120.88,0Z" style="fill: rgb(235, 235, 235); transform-origin: 133.61px 180.764px;" id="eljeel17gjuh" class="animable"></path><path d="M188.05,262.85V103.7a2.58,2.58,0,0,0-1.71-2.44c-6.71-2.41-25-5.16-52.73-5.16s-46,2.75-52.73,5.16a2.58,2.58,0,0,0-1.71,2.44V262.85a2.58,2.58,0,0,0,2.58,2.58H185.47A2.58,2.58,0,0,0,188.05,262.85Z" style="fill: rgb(250, 250, 250); transform-origin: 133.61px 180.765px;" id="elc6a8k7s8oyq" class="animable"></path><path d="M162.5,97.25l18.85,168.18H153.82l-19-169.33C145.54,96.13,154.8,96.58,162.5,97.25Z" style="fill: rgb(255, 255, 255); transform-origin: 158.085px 180.765px;" id="elc2k1ifvorc" class="animable"></path><path d="M126.9,96.16l19,169.27H130.67L111.75,96.73C116.36,96.45,121.42,96.25,126.9,96.16Z" style="fill: rgb(255, 255, 255); transform-origin: 128.825px 180.795px;" id="eluh1urh3m6g" class="animable"></path><g id="el6vlagjh6jt8"><rect x="25.9" y="177.95" width="174.14" height="5.28" style="fill: rgb(235, 235, 235); transform-origin: 112.97px 180.59px; transform: rotate(90deg);" class="animable"></rect></g><g id="el9gsfh4f8zb"><rect x="68.42" y="177.95" width="174.14" height="5.28" style="fill: rgb(235, 235, 235); transform-origin: 155.49px 180.59px; transform: rotate(90deg);" class="animable"></rect></g><g id="elk4ihn0s7g4"><rect x="65.3" y="180.11" width="174.14" height="0.95" style="fill: rgb(224, 224, 224); transform-origin: 152.37px 180.585px; transform: rotate(90deg);" class="animable"></rect></g><g id="el023z1le96pg7"><rect x="22.78" y="180.11" width="174.14" height="0.95" style="fill: rgb(224, 224, 224); transform-origin: 109.85px 180.585px; transform: rotate(90deg);" class="animable"></rect></g><g id="elt95b38r69gb"><rect x="77.23" y="131.88" width="114" height="5.28" style="fill: rgb(235, 235, 235); transform-origin: 134.23px 134.52px; transform: rotate(180deg);" class="animable"></rect></g><g id="elofz0dn94nz9"><rect x="76.23" y="269.82" width="123.33" height="5.83" style="fill: rgb(245, 245, 245); transform-origin: 137.895px 272.735px; transform: rotate(180deg);" class="animable"></rect></g><rect x="70.39" y="269.82" width="5.84" height="5.83" style="fill: rgb(224, 224, 224); transform-origin: 73.31px 272.735px;" id="el4rwfy0i1xel" class="animable"></rect><g id="elq24gxa3pb3"><rect x="417.02" y="66.75" width="30.15" height="8.52" style="fill: rgb(240, 240, 240); transform-origin: 432.095px 71.01px; transform: rotate(180deg);" class="animable"></rect></g><g id="elfrqy2qbhttr"><rect x="401.94" y="75.27" width="30.15" height="8.52" style="fill: rgb(230, 230, 230); transform-origin: 417.015px 79.53px; transform: rotate(180deg);" class="animable"></rect></g><g id="el7fkci7l77t2"><rect x="204.98" y="192.12" width="30.15" height="8.52" style="fill: rgb(245, 245, 245); transform-origin: 220.055px 196.38px; transform: rotate(180deg);" class="animable"></rect></g><g id="elwz3m5kjkfq7"><rect x="160.26" y="299.37" width="30.15" height="8.52" style="fill: rgb(245, 245, 245); transform-origin: 175.335px 303.63px; transform: rotate(180deg);" class="animable"></rect></g><rect x="417.02" y="308.89" width="30.15" height="8.52" style="fill: rgb(230, 230, 230); transform-origin: 432.095px 313.15px;" id="ely5vhz79gj2d" class="animable"></rect><g id="el7w8n3v0qw09"><rect x="189.91" y="40.09" width="30.15" height="8.52" style="fill: rgb(240, 240, 240); transform-origin: 204.985px 44.35px; transform: rotate(180deg);" class="animable"></rect></g><g id="elad6hsh65sdc"><rect x="79.17" y="351.1" width="30.15" height="8.52" style="fill: rgb(245, 245, 245); transform-origin: 94.245px 355.36px; transform: rotate(180deg);" class="animable"></rect></g><g id="elnowfoh2l8y"><rect x="55.31" y="289.25" width="30.15" height="8.52" style="fill: rgb(245, 245, 245); transform-origin: 70.385px 293.51px; transform: rotate(180deg);" class="animable"></rect></g><g id="elg8y5clvdxue"><rect x="94.24" y="359.63" width="30.15" height="8.52" style="fill: rgb(240, 240, 240); transform-origin: 109.315px 363.89px; transform: rotate(180deg);" class="animable"></rect></g><rect x="73.17" y="67.99" width="30.15" height="8.52" style="fill: rgb(240, 240, 240); transform-origin: 88.245px 72.25px;" id="elgrppln154ii" class="animable"></rect></g><g id="freepik--Shadow--inject-1" class="animable" style="transform-origin: 250px 416.24px;"><ellipse id="freepik--path--inject-1" cx="250" cy="416.24" rx="193.89" ry="11.32" style="fill: rgb(245, 245, 245); transform-origin: 250px 416.24px;" class="animable"></ellipse></g><g id="freepik--Character--inject-1" class="animable" style="transform-origin: 204.455px 263.175px;"><path d="M132.14,127.33c-5.92,1.31-12.8,9.61-6,18.08s-4.59,4.77-6.36,19.59,11.74,12.33,7.5,22.05,25.19,25.12,43.55,13.45,20.08-36.8,14.34-45.68-14.12-9.44-10.32-18.95-.68-19.4-12.53-19.49c-8.94-.07-3.58-6.32-15.88-6.27C136.18,110.16,127.11,117.36,132.14,127.33Z" style="fill: rgb(38, 50, 56); transform-origin: 153.854px 157.4px;" id="elkjy4s1k6vv" class="animable"></path><path d="M165.05,139.72a2.92,2.92,0,1,0,2.92,2.92A2.91,2.91,0,0,0,165.05,139.72Zm0,5.15a2.24,2.24,0,1,1,2.24-2.23A2.23,2.23,0,0,1,165.05,144.87Z" style="fill: rgb(255, 255, 255); transform-origin: 165.05px 142.64px;" id="el5mkj6jsvk4k" class="animable"></path><path d="M189.67,168.17h0a.24.24,0,0,1-.2-.29c.9-4.66-2.73-9.17-6.57-14-4.49-5.57-9.57-11.89-7.78-19.42,1.53-6.42.85-11.78-1.92-15.1-2.26-2.71-5.79-4-10.48-3.72-4.3.22-5.57-1-6.92-2.18s-3.14-2.85-9.31-2.81h0a.25.25,0,0,1-.25-.24.26.26,0,0,1,.25-.26h.21c6.22,0,7.93,1.56,9.44,2.94,1.32,1.21,2.47,2.26,6.56,2.05,4.85-.25,8.52,1.06,10.89,3.9,2.87,3.45,3.58,9,2,15.54-1.73,7.29,3.05,13.24,7.68,19,3.91,4.87,7.61,9.47,6.67,14.35A.25.25,0,0,1,189.67,168.17Z" style="fill: rgb(38, 50, 56); transform-origin: 168.164px 139.16px;" id="elaf2imyxcj1" class="animable"></path><path d="M213.18,149.06l-1.34,2.62a3.41,3.41,0,0,0,0,3.14l2.37,4.6a6.39,6.39,0,0,0,4.78,3.4l1.26.18c2.54-4.19,2.19-10.59,2.19-10.59l.1-1.83a2.85,2.85,0,0,0-2.63-3.09l-3.63-.25A3.31,3.31,0,0,0,213.18,149.06Z" style="fill: rgb(255, 195, 189); transform-origin: 217.004px 155.118px;" id="elji9ewax0kaq" class="animable"></path><path d="M183.41,166.57s.06.11.11.18l.21.31.48.64c.34.44.71.87,1.09,1.3.76.86,1.57,1.7,2.41,2.51a38.73,38.73,0,0,0,5.51,4.33,32.37,32.37,0,0,0,12.76,5l.85.12.43.06a.54.54,0,0,0-.11,0,1.2,1.2,0,0,0-.6.22c-.19.18.27-.08.71-.74a20.69,20.69,0,0,0,2.47-5.89,56.2,56.2,0,0,0,1.46-7.37c.19-1.26.3-2.55.41-3.83s.19-2.62.19-3.77l11.52.55c-.15,1.57-.3,2.92-.46,4.37s-.39,2.85-.59,4.27c-.44,2.86-.95,5.72-1.7,8.66a41.76,41.76,0,0,1-1.35,4.47,27.07,27.07,0,0,1-2.22,4.75,13.67,13.67,0,0,1-5,5,10.55,10.55,0,0,1-4.52,1.25c-.37,0-.83,0-1.13,0l-.59,0-1.18-.08a48.88,48.88,0,0,1-9.29-1.79,54.94,54.94,0,0,1-8.72-3.5,59.84,59.84,0,0,1-7.95-4.88c-1.27-.91-2.5-1.88-3.71-2.9-.6-.51-1.19-1.05-1.79-1.6l-.9-.85-.47-.47c-.17-.18-.28-.29-.55-.59Z" style="fill: rgb(182, 73, 38); transform-origin: 197.25px 176.3px;" id="elqfqagtzpa0r" class="animable"></path><g id="elxbh3oh6cbkn"><path d="M183.41,166.57s.06.11.11.18l.21.31.48.64c.34.44.71.87,1.09,1.3.76.86,1.57,1.7,2.41,2.51a38.73,38.73,0,0,0,5.51,4.33,32.37,32.37,0,0,0,12.76,5l.85.12.43.06a.54.54,0,0,0-.11,0,1.2,1.2,0,0,0-.6.22c-.19.18.27-.08.71-.74a20.69,20.69,0,0,0,2.47-5.89,56.2,56.2,0,0,0,1.46-7.37c.19-1.26.3-2.55.41-3.83s.19-2.62.19-3.77l11.52.55c-.15,1.57-.3,2.92-.46,4.37s-.39,2.85-.59,4.27c-.44,2.86-.95,5.72-1.7,8.66a41.76,41.76,0,0,1-1.35,4.47,27.07,27.07,0,0,1-2.22,4.75,13.67,13.67,0,0,1-5,5,10.55,10.55,0,0,1-4.52,1.25c-.37,0-.83,0-1.13,0l-.59,0-1.18-.08a48.88,48.88,0,0,1-9.29-1.79,54.94,54.94,0,0,1-8.72-3.5,59.84,59.84,0,0,1-7.95-4.88c-1.27-.91-2.5-1.88-3.71-2.9-.6-.51-1.19-1.05-1.79-1.6l-.9-.85-.47-.47c-.17-.18-.28-.29-.55-.59Z" style="fill: rgb(255, 255, 255); opacity: 0.5; transform-origin: 197.25px 176.3px;" class="animable"></path></g><path d="M159.41,408.26c-1.46-3.26-.45-17-.25-19.23-2.53-1.33-11.23.3-11.23.3s2.43,14.43,1,18.93C152.26,410.12,159.41,408.26,159.41,408.26Z" style="fill: rgb(255, 195, 189); transform-origin: 153.67px 398.797px;" id="ela0q8p7tb0q5" class="animable"></path><path d="M266.76,395.1c-2.74-2.29-8.5-14.82-9.31-16.93-2.86-.07-9.31,5-9.31,5s8.52,11.89,9.19,16.58C261.16,399.91,266.76,395.1,266.76,395.1Z" style="fill: rgb(255, 195, 189); transform-origin: 257.45px 388.962px;" id="elqfgdkxkzuo" class="animable"></path><path d="M168.31,416.23c-7.31,0-8.56-.11-12.67-.25-3.52-.13-4.36.31-7.19.25-2.36-.05-2.27-2.31-1.55-4.92.26-.92.62-2,1-3.3a2.36,2.36,0,0,1,2.27-1.71h8a2.44,2.44,0,0,1,1.88.93c1.94,2.41,6.13,4.17,9.79,4.66C173.8,412.42,171.23,416.23,168.31,416.23Z" style="fill: rgb(182, 73, 38); transform-origin: 159.159px 411.268px;" id="el1gsy6exnipn" class="animable"></path><path d="M281.2,400.69c-7.87,3.56-12,1.75-15.95,2.65-3.39.76-3.28,1.4-6.65,2.37-2.24.63-3.39-1.76-3.19-3.86a40.4,40.4,0,0,0,.23-4.6,1.5,1.5,0,0,1,.88-1.41l7.82-3.55a1.52,1.52,0,0,1,1.56.19c3.12,2.5,10,5.63,14.77,4C284.39,395.25,283.82,399.5,281.2,400.69Z" style="fill: rgb(182, 73, 38); transform-origin: 269.35px 398.985px;" id="eluhm4ao71ufq" class="animable"></path><path d="M194.4,222.34S212.87,264.75,223,296c12.41,28.28,37.27,87.61,37.27,87.61.49,1.51-7.37,4.28-9.07,4,0,0-32.82-39.36-46.18-84.07-34.75-43.6-45-78.6-45-78.6Z" style="fill: rgb(38, 50, 56); transform-origin: 210.156px 304.985px;" id="elyujkmqajkyr" class="animable"></path><g id="elbrfoufy00l"><path d="M179.58,245.56c5.1,5.59,8.69,25,10.52,37.67a290.62,290.62,0,0,1-17.17-28.61C173.44,249.88,175.52,246.39,179.58,245.56Z" style="opacity: 0.2; transform-origin: 181.515px 264.395px;" class="animable"></path></g><path d="M184.11,223.13s1.31,58.91-3.81,87.93c-5.38,30.47-22,67.23-20.85,87.23-1.72,1-7.74,1.06-11.11,0,0,0-5.76-59.39,11.55-88.38-3.75-29-13.73-66.61-4.87-84.57Z" style="fill: rgb(38, 50, 56); transform-origin: 165.84px 311.096px;" id="elfzryzvn4c7p" class="animable"></path><path d="M160.29,394.13a28.51,28.51,0,0,0,.38,4.1.84.84,0,0,1-.71,1c-4.07.65-10-.29-11.82-.62a.86.86,0,0,1-.69-.71l-.61-3.84a.86.86,0,0,1,.86-1l11.75.22A.86.86,0,0,1,160.29,394.13Z" style="fill: rgb(38, 50, 56); transform-origin: 153.758px 396.257px;" id="el0btopjnobiwf" class="animable"></path><g id="elb9b6a55n40l"><path d="M160.29,394.13a28.51,28.51,0,0,0,.38,4.1.84.84,0,0,1-.71,1c-4.07.65-10-.29-11.82-.62a.86.86,0,0,1-.69-.71l-.61-3.84a.86.86,0,0,1,.86-1l11.75.22A.86.86,0,0,1,160.29,394.13Z" style="fill: rgb(255, 255, 255); opacity: 0.1; transform-origin: 153.758px 396.257px;" class="animable"></path></g><path d="M259.42,379.28c.5,1,1.41,2.63,2.13,3.86a.86.86,0,0,1-.3,1.16,59.52,59.52,0,0,1-10.07,4.29.85.85,0,0,1-1-.29l-2.38-3.15a.86.86,0,0,1,.3-1.29l10.14-4.94A.84.84,0,0,1,259.42,379.28Z" style="fill: rgb(38, 50, 56); transform-origin: 254.644px 383.727px;" id="el162sryio4rr" class="animable"></path><g id="eletnlhx40pme"><path d="M259.42,379.28c.5,1,1.41,2.63,2.13,3.86a.86.86,0,0,1-.3,1.16,59.52,59.52,0,0,1-10.07,4.29.85.85,0,0,1-1-.29l-2.38-3.15a.86.86,0,0,1,.3-1.29l10.14-4.94A.84.84,0,0,1,259.42,379.28Z" style="fill: rgb(255, 255, 255); opacity: 0.1; transform-origin: 254.644px 383.727px;" class="animable"></path></g><path d="M186.54,172.42c1,3.76,2.56,7.89,4.46,17,1.75,7.65,3,21.1,3.4,32.94-5.14,4.58-22.23,3.8-39.38,3-.05-11.15-4.63-21.44-17.08-44.27a9.21,9.21,0,0,1,5-13.42c1.49-.5,3.08-1,4.73-1.46a127.8,127.8,0,0,1,17.48-4c1.94-.26,4-.46,5.9-.63A14.87,14.87,0,0,1,186.54,172.42Z" style="fill: rgb(182, 73, 38); transform-origin: 165.529px 193.752px;" id="elbnizvjgmc6" class="animable"></path><g id="elwrwpvcm1p4s"><path d="M186.54,172.42c1,3.76,2.56,7.89,4.46,17,1.75,7.65,3,21.1,3.4,32.94-5.14,4.58-22.23,3.8-39.38,3-.05-11.15-4.63-21.44-17.08-44.27a9.21,9.21,0,0,1,5-13.42c1.49-.5,3.08-1,4.73-1.46a127.8,127.8,0,0,1,17.48-4c1.94-.26,4-.46,5.9-.63A14.87,14.87,0,0,1,186.54,172.42Z" style="fill: rgb(255, 255, 255); opacity: 0.5; transform-origin: 165.529px 193.752px;" class="animable"></path></g><path d="M166.3,162.2,148.65,166s14.28,6,25.73,15.14C177.5,165.42,166.3,162.2,166.3,162.2Z" style="fill: rgb(255, 255, 255); transform-origin: 161.789px 171.67px;" id="elaw7cadpvm5n" class="animable"></path><path d="M144.44,146.23c2.8,5.28,7,15.16,4.21,19.75,0,0,15.93,4.6,24.43,11.91,1.14-11.82-6.78-15.69-6.78-15.69-6.72,0-8.14-4.86-8.36-9.4Z" style="fill: rgb(255, 195, 189); transform-origin: 158.816px 162.06px;" id="elhzqxeijwbj" class="animable"></path><path d="M159.41,167.49a56.81,56.81,0,0,1-10.82-1.27.25.25,0,0,1-.19-.3.26.26,0,0,1,.3-.19c.1,0,9.53,2.11,15,.86,1.75-.4,2.78-1,3-1.91a2.91,2.91,0,0,0-.79-2.41.25.25,0,0,1,0-.36.25.25,0,0,1,.35,0,3.37,3.37,0,0,1,.91,2.9c-.32,1-1.47,1.81-3.41,2.25A20.44,20.44,0,0,1,159.41,167.49Z" style="fill: rgb(255, 255, 255); transform-origin: 157.804px 164.665px;" id="elp6d45qwfgzb" class="animable"></path><path d="M166.52,167.63h0a1,1,0,0,1-1.35-.19l-.55-.72a1,1,0,0,1,.19-1.35h0a1,1,0,0,1,1.35.19l.55.73A1,1,0,0,1,166.52,167.63Z" style="fill: rgb(182, 73, 38); transform-origin: 165.663px 166.5px;" id="elvmvv6b252ga" class="animable"></path><g id="elda3svczw1ld"><path d="M149.94,148.91l8,3.89a17.51,17.51,0,0,0,.4,3.17c-2.5.2-6.59-1.63-7.6-4A8.75,8.75,0,0,1,149.94,148.91Z" style="opacity: 0.2; transform-origin: 154.14px 152.447px;" class="animable"></path></g><path d="M136.38,138.22c4.12,8.54,5.67,12.23,12,15.16,9.47,4.41,19.15-1.88,17.69-11.32-1.31-8.5-7.81-21-17.88-21.51A12.14,12.14,0,0,0,136.38,138.22Z" style="fill: rgb(255, 195, 189); transform-origin: 150.621px 137.662px;" id="el0g66l4n8fthu" class="animable"></path><path d="M140,125.82c4.47,6.35,4.24,16.77-1,18.18-8-1.24-9.74-3.31-9.74-3.31S131.82,121.1,140,125.82Z" style="fill: rgb(38, 50, 56); transform-origin: 136.208px 134.543px;" id="ellr7azi2nv3" class="animable"></path><path d="M133.7,128.43c11.82,1.51,21.23-3.43,23-6.2C146,115,134.87,121.15,133.7,128.43Z" style="fill: rgb(38, 50, 56); transform-origin: 145.2px 123.854px;" id="elanp10t6vbo5" class="animable"></path><path d="M158.38,133.29a23.57,23.57,0,0,0,4.61,3.76c-.58,1.23-2.4,1.4-2.4,1.4Z" style="fill: rgb(237, 132, 126); transform-origin: 160.685px 135.87px;" id="el5k1msz8i82t" class="animable"></path><path d="M157.81,142.39a8.15,8.15,0,0,0,1.27-.32.21.21,0,0,0,.12-.29.25.25,0,0,0-.31-.14,6.61,6.61,0,0,1-5.69-.62.23.23,0,0,0-.32,0,.24.24,0,0,0,.06.32A6.94,6.94,0,0,0,157.81,142.39Z" style="fill: rgb(38, 50, 56); transform-origin: 156.032px 141.714px;" id="elamyttpz4mi" class="animable"></path><path d="M136.91,147a6.48,6.48,0,0,0,5.22.63c2.12-.74,1.5-3.32-.5-5-1.79-1.48-5.06-2.87-6.5-1.24S134.77,145.81,136.91,147Z" style="fill: rgb(255, 195, 189); transform-origin: 138.963px 144.286px;" id="elmyww32g3qt" class="animable"></path><path d="M140.68,147.52a2.92,2.92,0,1,0,2.92,2.92A2.91,2.91,0,0,0,140.68,147.52Zm0,5.15a2.24,2.24,0,1,1,2.24-2.23A2.23,2.23,0,0,1,140.68,152.67Z" style="fill: rgb(255, 255, 255); transform-origin: 140.68px 150.44px;" id="elnwa8r452lg" class="animable"></path><path d="M147.19,132.62a.39.39,0,0,0,.19-.29,3.4,3.4,0,0,1,1.87-2.64.43.43,0,0,0,.22-.59.49.49,0,0,0-.63-.23,4.21,4.21,0,0,0-2.4,3.3.49.49,0,0,0,.75.45Z" style="fill: rgb(38, 50, 56); transform-origin: 147.977px 130.763px;" id="ele2c97vgqdil" class="animable"></path><path d="M161.39,127.32a.39.39,0,0,0,.3-.16.46.46,0,0,0-.11-.64,4.85,4.85,0,0,0-4.21-1,.42.42,0,0,0-.26.57.5.5,0,0,0,.6.3,3.87,3.87,0,0,1,3.33.79A.42.42,0,0,0,161.39,127.32Z" style="fill: rgb(38, 50, 56); transform-origin: 159.424px 126.357px;" id="el196jearweil" class="animable"></path><path d="M161.25,130.7c.25.74.07,1.47-.42,1.64s-1.09-.31-1.35-1.05-.07-1.48.42-1.64S161,130,161.25,130.7Z" style="fill: rgb(38, 50, 56); transform-origin: 160.363px 130.997px;" id="elso2uclb46ah" class="animable"></path><path d="M152.58,134.27c.26.74.07,1.47-.42,1.64s-1.09-.31-1.35-1-.07-1.48.42-1.64S152.32,133.52,152.58,134.27Z" style="fill: rgb(38, 50, 56); transform-origin: 151.695px 134.59px;" id="el7gr68ljeolt" class="animable"></path><path d="M150.81,133.65l.82-1.76S152.1,133.57,150.81,133.65Z" style="fill: rgb(38, 50, 56); transform-origin: 151.262px 132.77px;" id="elv1wwponqwm" class="animable"></path><path d="M159.42,130.19l.82-1.76S160.71,130.1,159.42,130.19Z" style="fill: rgb(38, 50, 56); transform-origin: 159.872px 129.31px;" id="elccq2tbz9ykt" class="animable"></path><g id="elg11anz3cclq"><path d="M149,182.15l-8.68,3.26c3.57,6.62,6.4,12.1,8.57,16.86A119.53,119.53,0,0,1,149,182.15Z" style="fill: rgb(182, 73, 38); opacity: 0.5; transform-origin: 144.66px 192.21px;" class="animable"></path></g><g id="el8d56evtr51h"><rect x="203.34" y="251.83" width="11.41" height="164.41" style="fill: rgb(182, 73, 38); transform-origin: 209.045px 334.035px; transform: rotate(180deg);" class="animable"></rect></g><g id="eldeg6tsefwmm"><polygon points="203.34 251.83 214.75 251.83 214.75 279.48 203.34 276.54 203.34 251.83" style="opacity: 0.2; transform-origin: 209.045px 265.655px;" class="animable"></polygon></g><g id="elqa0063k7299"><path d="M168.27,227.12H270.05a0,0,0,0,1,0,0v19.06a26.12,26.12,0,0,1-26.12,26.12H194.39a26.12,26.12,0,0,1-26.12-26.12V227.12A0,0,0,0,1,168.27,227.12Z" style="fill: rgb(182, 73, 38); transform-origin: 219.16px 249.71px; transform: rotate(180deg);" class="animable"></path></g><path d="M175.78,241.06l-1.69-2.41a3.44,3.44,0,0,0-2.78-1.46l-5.18,0a6.39,6.39,0,0,0-5.23,2.64l-.75,1c2.53,4.2,8.35,6.86,8.35,6.86l1.58.95a2.84,2.84,0,0,0,3.95-.9l1.91-3.09A3.3,3.3,0,0,0,175.78,241.06Z" style="fill: rgb(255, 195, 189); transform-origin: 168.272px 243.139px;" id="el24r0dde9qxk" class="animable"></path><path d="M152.2,179.68c-.26.55-.6,1.35-.89,2l-.89,2.22c-.58,1.49-1.13,3-1.63,4.51a83.11,83.11,0,0,0-2.47,9.14c-.3,1.52-.55,3-.74,4.52a43.51,43.51,0,0,0-.26,4.35,17.76,17.76,0,0,0,1.27,7.18l.38.8a1.59,1.59,0,0,1,.07.2,17.78,17.78,0,0,0,2.91,5.5,50.61,50.61,0,0,0,4.9,5.65c1.84,1.8,3.81,3.55,5.85,5.23,1,.84,2.08,1.65,3.14,2.44s2.18,1.59,3.17,2.24l-5.67,9c-1.36-.85-2.51-1.63-3.74-2.46s-2.39-1.68-3.57-2.55c-2.36-1.72-4.67-3.55-6.92-5.53a62.72,62.72,0,0,1-6.54-6.51,35.73,35.73,0,0,1-3-4,26.48,26.48,0,0,1-2.53-4.87l.45,1a29.87,29.87,0,0,1-3.62-12.68,63.5,63.5,0,0,1,.32-11.68,101.45,101.45,0,0,1,1.92-11q.6-2.69,1.34-5.36c.24-.89.49-1.77.76-2.66s.53-1.73.9-2.79Z" style="fill: rgb(182, 73, 38); transform-origin: 149.373px 209.115px;" id="els9a636i8ktj" class="animable"></path><g id="ell346vwjomtg"><path d="M152.2,179.68c-.26.55-.6,1.35-.89,2l-.89,2.22c-.58,1.49-1.13,3-1.63,4.51a83.11,83.11,0,0,0-2.47,9.14c-.3,1.52-.55,3-.74,4.52a43.51,43.51,0,0,0-.26,4.35,17.76,17.76,0,0,0,1.27,7.18l.38.8a1.59,1.59,0,0,1,.07.2,17.78,17.78,0,0,0,2.91,5.5,50.61,50.61,0,0,0,4.9,5.65c1.84,1.8,3.81,3.55,5.85,5.23,1,.84,2.08,1.65,3.14,2.44s2.18,1.59,3.17,2.24l-5.67,9c-1.36-.85-2.51-1.63-3.74-2.46s-2.39-1.68-3.57-2.55c-2.36-1.72-4.67-3.55-6.92-5.53a62.72,62.72,0,0,1-6.54-6.51,35.73,35.73,0,0,1-3-4,26.48,26.48,0,0,1-2.53-4.87l.45,1a29.87,29.87,0,0,1-3.62-12.68,63.5,63.5,0,0,1,.32-11.68,101.45,101.45,0,0,1,1.92-11q.6-2.69,1.34-5.36c.24-.89.49-1.77.76-2.66s.53-1.73.9-2.79Z" style="fill: rgb(255, 255, 255); opacity: 0.5; transform-origin: 149.373px 209.115px;" class="animable"></path></g><g id="elmj4b8g3x4n"><rect x="168.27" y="254.06" width="49.54" height="12.59" style="fill: rgb(255, 255, 255); opacity: 0.1; transform-origin: 193.04px 260.355px; transform: rotate(180deg);" class="animable"></rect></g><g id="elseovhv5lt6b"><path d="M217.81,272.3V253.24a26.12,26.12,0,0,1,52.24,0V272.3" style="opacity: 0.2; transform-origin: 243.93px 249.71px;" class="animable"></path></g><g id="el9tr6qbw79ee"><rect x="217.81" y="272.3" width="71.48" height="3.35" style="fill: rgb(182, 73, 38); transform-origin: 253.55px 273.975px; transform: rotate(180deg);" class="animable"></rect></g><g id="elpov153svvm8"><rect x="237.05" y="272.3" width="52.24" height="3.35" style="opacity: 0.2; transform-origin: 263.17px 273.975px; transform: rotate(180deg);" class="animable"></rect></g><g id="elv0331u2e8eh"><rect x="209.04" y="214.5" width="1.85" height="44.13" style="fill: rgb(224, 224, 224); transform-origin: 209.965px 236.565px; transform: rotate(180deg);" class="animable"></rect></g><path d="M198.51,223.06h12.94v-6.34a.84.84,0,0,0-.84-.84h-12.1l2.12,3.59Z" style="fill: rgb(182, 73, 38); transform-origin: 204.98px 219.47px;" id="elwnkv2w1wza" class="animable"></path></g><g id="freepik--Line--inject-1" class="animable" style="transform-origin: 324.295px 172.745px;"><path d="M328.58,88.33a.5.5,0,0,1-.48-.39.49.49,0,0,1,.37-.6,23.34,23.34,0,0,0,3.26-1,.5.5,0,1,1,.37.93,23.61,23.61,0,0,1-3.4,1.07Z" style="fill: rgb(182, 73, 38); transform-origin: 330.251px 87.322px;" id="el3yahmf8ug3" class="animable"></path><path d="M291,261.08a.51.51,0,0,1-.5-.48.5.5,0,0,1,.48-.52c2.31-.12,4.67-.33,7-.64a.51.51,0,0,1,.56.43.49.49,0,0,1-.43.56c-2.36.32-4.75.53-7.09.64Zm14-1.85a.5.5,0,0,1-.11-1c2.35-.51,4.64-1.11,6.8-1.79a.5.5,0,1,1,.3.95c-2.19.69-4.5,1.3-6.89,1.82Zm13.45-4.32a.49.49,0,0,1-.45-.29.5.5,0,0,1,.24-.67,36.39,36.39,0,0,0,4.89-2.65l1.19-.8a.5.5,0,0,1,.69.14.49.49,0,0,1-.13.69l-1.2.8a37.2,37.2,0,0,1-5,2.73A.54.54,0,0,1,318.48,254.91Zm11.77-7.79a.52.52,0,0,1-.38-.17.51.51,0,0,1,.05-.71,42.47,42.47,0,0,0,4.91-5,.51.51,0,0,1,.71-.06.49.49,0,0,1,.06.7,44.56,44.56,0,0,1-5,5.09A.49.49,0,0,1,330.25,247.12Zm8.89-10.9a.46.46,0,0,1-.23-.06.5.5,0,0,1-.22-.67q.49-.94.9-1.92a31.35,31.35,0,0,0,1.5-4.6.5.5,0,0,1,1,.24,31.43,31.43,0,0,1-1.55,4.75c-.28.67-.59,1.33-.93,2A.49.49,0,0,1,339.14,236.22Zm3.47-13.62h0a.5.5,0,0,1-.47-.54c.09-1.36.14-2.8.14-4.39,0-.88,0-1.75,0-2.63a.5.5,0,0,1,.49-.52.49.49,0,0,1,.51.49c0,.89,0,1.77,0,2.66,0,1.62-.05,3.08-.14,4.46A.5.5,0,0,1,342.61,222.6Zm-.19-14.15a.5.5,0,0,1-.5-.47c-.09-2-.18-4.22-.18-6.4v-.71a.46.46,0,0,1,.5-.49.5.5,0,0,1,.5.5v.7c0,2.16.09,4.33.18,6.35a.5.5,0,0,1-.48.52Zm42.75-6.16c-.91,0-1.8,0-2.65-.06a.5.5,0,0,1-.48-.52.5.5,0,0,1,.52-.48c.84,0,1.72.06,2.61.06a39.89,39.89,0,0,0,4.39-.22.5.5,0,0,1,.11,1A42,42,0,0,1,385.17,202.29Zm-9.69-.51h0c-2.34-.18-4.72-.39-7.06-.63a.5.5,0,0,1-.45-.55.5.5,0,0,1,.55-.45c2.33.24,4.7.46,7,.64a.5.5,0,0,1,0,1Zm21-1.43a.52.52,0,0,1-.46-.29.5.5,0,0,1,.25-.66,11.19,11.19,0,0,0,5.09-4.32.5.5,0,1,1,.85.52,12.13,12.13,0,0,1-5.52,4.71A.52.52,0,0,1,396.45,200.35Zm-35.05,0h-.06c-2.33-.3-4.7-.64-7-1a.5.5,0,0,1-.42-.57.51.51,0,0,1,.57-.42c2.32.36,4.67.7,7,1a.5.5,0,0,1-.06,1Zm-14-2.17h-.09c-2.31-.42-4.65-.88-6.95-1.36a.5.5,0,0,1,.2-1c2.3.48,4.63.94,6.93,1.36a.5.5,0,0,1,.41.58A.51.51,0,0,1,347.41,198.16Zm-13.85-2.9h-.12c-2.28-.54-4.6-1.12-6.87-1.72a.5.5,0,1,1,.25-1c2.27.6,4.57,1.18,6.85,1.71a.52.52,0,0,1,.38.61A.5.5,0,0,1,333.56,195.26Zm9.18-.94h-.08a.51.51,0,0,1-.42-.57A35.17,35.17,0,0,1,344,186.8a.5.5,0,0,1,.64-.3.5.5,0,0,1,.3.64,34,34,0,0,0-1.7,6.76A.5.5,0,0,1,342.74,194.32Zm-22.87-2.67a.36.36,0,0,1-.14,0c-2.25-.65-4.54-1.35-6.78-2.07a.49.49,0,0,1-.32-.63.5.5,0,0,1,.63-.32c2.23.71,4.5,1.41,6.75,2.06a.5.5,0,0,1,.34.62A.49.49,0,0,1,319.87,191.65Zm83.31-2.57a.51.51,0,0,1-.49-.41,10.46,10.46,0,0,0-3.54-5.61.49.49,0,0,1,0-.7.5.5,0,0,1,.71,0,11.37,11.37,0,0,1,3.85,6.16.5.5,0,0,1-.39.59Zm-96.78-1.75a.47.47,0,0,1-.17,0c-2.28-.81-4.51-1.65-6.65-2.49a.51.51,0,0,1-.28-.65.5.5,0,0,1,.65-.28c2.12.84,4.35,1.67,6.61,2.48a.5.5,0,0,1,.31.63A.5.5,0,0,1,306.4,187.33Zm-13.16-5.23a.46.46,0,0,1-.2,0c-2.2-1-4.36-2-6.41-3.05a.5.5,0,1,1,.45-.89c2,1,4.18,2,6.37,3a.5.5,0,0,1-.21,1Zm54.52-.87a.55.55,0,0,1-.3-.09.5.5,0,0,1-.1-.7,19.34,19.34,0,0,1,4.75-4.6l.52-.33a.5.5,0,1,1,.53.85l-.49.31a18.43,18.43,0,0,0-4.51,4.36A.51.51,0,0,1,347.76,181.23Zm45.87-2a.53.53,0,0,1-.24-.06c-.84-.45-1.66-.87-2.44-1.26-1.27-.62-2.58-1.2-3.9-1.72a.5.5,0,1,1,.36-.93c1.35.52,2.69,1.12,4,1.76.78.39,1.62.81,2.47,1.27a.51.51,0,0,1,.2.68A.49.49,0,0,1,393.63,179.23Zm-113-3.55a.45.45,0,0,1-.25-.07c-2.09-1.21-4.12-2.47-6-3.76a.5.5,0,0,1,.55-.83c1.9,1.27,3.91,2.53,6,3.73a.5.5,0,0,1-.25.93Zm99.85-1.57h-.12a50.54,50.54,0,0,0-6.91-1.14.5.5,0,0,1-.45-.54.51.51,0,0,1,.55-.45,50.91,50.91,0,0,1,7,1.16.5.5,0,0,1-.11,1Zm-21.05-.32a.51.51,0,0,1-.49-.39.5.5,0,0,1,.37-.6,36.42,36.42,0,0,1,5.34-.85c.58,0,1.17-.09,1.75-.12a.48.48,0,0,1,.53.47.5.5,0,0,1-.47.52c-.58,0-1.15.08-1.72.13a35.53,35.53,0,0,0-5.19.82Zm-90.53-6a.5.5,0,0,1-.31-.1c-1.9-1.49-3.72-3.05-5.41-4.62a.5.5,0,0,1,0-.71.51.51,0,0,1,.71,0c1.67,1.56,3.47,3.1,5.35,4.57a.5.5,0,0,1,.08.7A.48.48,0,0,1,268.9,167.78Zm-10.32-9.65a.52.52,0,0,1-.38-.17,61.24,61.24,0,0,1-4.39-5.62.51.51,0,0,1,.12-.7.52.52,0,0,1,.7.13A59.3,59.3,0,0,0,259,157.3a.5.5,0,0,1,0,.7A.5.5,0,0,1,258.58,158.13Zm-8-11.63a.49.49,0,0,1-.44-.28,50.58,50.58,0,0,1-2.83-6.55.51.51,0,0,1,.31-.64.5.5,0,0,1,.63.31,49.34,49.34,0,0,0,2.78,6.43.5.5,0,0,1-.22.67A.46.46,0,0,1,250.57,146.5ZM246,133.17a.49.49,0,0,1-.49-.42c-.1-.53-.18-1.06-.26-1.6a39.07,39.07,0,0,1-.37-5.32v-.21a.5.5,0,0,1,1,0v.2a37,37,0,0,0,.36,5.18c.08.53.16,1.05.25,1.57a.5.5,0,0,1-.4.58Zm.05-14.08h-.09a.5.5,0,0,1-.4-.58,42.46,42.46,0,0,1,1.89-6.9.52.52,0,0,1,.65-.3.5.5,0,0,1,.29.64,40.79,40.79,0,0,0-1.85,6.74A.49.49,0,0,1,246,119.09Zm4.88-13.21a.59.59,0,0,1-.25-.07.51.51,0,0,1-.18-.69,39.14,39.14,0,0,1,4.15-5.83.5.5,0,0,1,.75.65,39.43,39.43,0,0,0-4,5.69A.5.5,0,0,1,250.9,105.88Zm9.21-10.65a.5.5,0,0,1-.31-.89,37.43,37.43,0,0,1,6.05-3.83.5.5,0,0,1,.45.9,37,37,0,0,0-5.89,3.72A.49.49,0,0,1,260.11,95.23ZM321.56,89h0a53.78,53.78,0,0,1-7.11-.63.5.5,0,0,1,.14-1,52,52,0,0,0,7,.62.5.5,0,1,1,0,1Zm-48.94-.26a.5.5,0,0,1-.16-1,60.78,60.78,0,0,1,6.9-1.8.5.5,0,0,1,.59.4.48.48,0,0,1-.39.58,61,61,0,0,0-6.79,1.77Zm34.92-1.57h-.09c-2.15-.4-4.58-.85-7-1.19a.5.5,0,0,1-.42-.56.49.49,0,0,1,.56-.43c2.4.34,4.84.8,7,1.2a.5.5,0,0,1,.4.58A.51.51,0,0,1,307.54,87.2Zm-21.08-1.29a.5.5,0,0,1-.06-1c1.27-.14,2.63-.27,4-.38.88-.07,1.81-.11,2.76-.11h.33a.5.5,0,0,1,.49.51.52.52,0,0,1-.5.49h-.32c-.92,0-1.82,0-2.69.1-1.38.11-2.72.24-4,.39Z" style="fill: rgb(182, 73, 38); transform-origin: 324.295px 172.735px;" id="elgtl8pljm8x" class="animable"></path><path d="M283.82,261.1h0c-1.19-.05-2.37-.14-3.51-.25a.49.49,0,0,1-.45-.54.48.48,0,0,1,.54-.45c1.13.11,2.29.19,3.47.24a.5.5,0,0,1,0,1Z" style="fill: rgb(182, 73, 38); transform-origin: 282.114px 260.478px;" id="el7arudeovqti" class="animable"></path><g id="el6vums56fhak"><g style="opacity: 0.6; transform-origin: 324.295px 172.745px;" class="animable"><path d="M328.58,88.33a.5.5,0,0,1-.48-.39.49.49,0,0,1,.37-.6,23.34,23.34,0,0,0,3.26-1,.5.5,0,1,1,.37.93,23.61,23.61,0,0,1-3.4,1.07Z" style="fill: rgb(255, 255, 255); transform-origin: 330.251px 87.322px;" id="el493570m1d4r" class="animable"></path><path d="M291,261.08a.51.51,0,0,1-.5-.48.5.5,0,0,1,.48-.52c2.31-.12,4.67-.33,7-.64a.51.51,0,0,1,.56.43.49.49,0,0,1-.43.56c-2.36.32-4.75.53-7.09.64Zm14-1.85a.5.5,0,0,1-.11-1c2.35-.51,4.64-1.11,6.8-1.79a.5.5,0,1,1,.3.95c-2.19.69-4.5,1.3-6.89,1.82Zm13.45-4.32a.49.49,0,0,1-.45-.29.5.5,0,0,1,.24-.67,36.39,36.39,0,0,0,4.89-2.65l1.19-.8a.5.5,0,0,1,.69.14.49.49,0,0,1-.13.69l-1.2.8a37.2,37.2,0,0,1-5,2.73A.54.54,0,0,1,318.48,254.91Zm11.77-7.79a.52.52,0,0,1-.38-.17.51.51,0,0,1,.05-.71,42.47,42.47,0,0,0,4.91-5,.51.51,0,0,1,.71-.06.49.49,0,0,1,.06.7,44.56,44.56,0,0,1-5,5.09A.49.49,0,0,1,330.25,247.12Zm8.89-10.9a.46.46,0,0,1-.23-.06.5.5,0,0,1-.22-.67q.49-.94.9-1.92a31.35,31.35,0,0,0,1.5-4.6.5.5,0,0,1,1,.24,31.43,31.43,0,0,1-1.55,4.75c-.28.67-.59,1.33-.93,2A.49.49,0,0,1,339.14,236.22Zm3.47-13.62h0a.5.5,0,0,1-.47-.54c.09-1.36.14-2.8.14-4.39,0-.88,0-1.75,0-2.63a.5.5,0,0,1,.49-.52.49.49,0,0,1,.51.49c0,.89,0,1.77,0,2.66,0,1.62-.05,3.08-.14,4.46A.5.5,0,0,1,342.61,222.6Zm-.19-14.15a.5.5,0,0,1-.5-.47c-.09-2-.18-4.22-.18-6.4v-.71a.46.46,0,0,1,.5-.49.5.5,0,0,1,.5.5v.7c0,2.16.09,4.33.18,6.35a.5.5,0,0,1-.48.52Zm42.75-6.16c-.91,0-1.8,0-2.65-.06a.5.5,0,0,1-.48-.52.5.5,0,0,1,.52-.48c.84,0,1.72.06,2.61.06a39.89,39.89,0,0,0,4.39-.22.5.5,0,0,1,.11,1A42,42,0,0,1,385.17,202.29Zm-9.69-.51h0c-2.34-.18-4.72-.39-7.06-.63a.5.5,0,0,1-.45-.55.5.5,0,0,1,.55-.45c2.33.24,4.7.46,7,.64a.5.5,0,0,1,0,1Zm21-1.43a.52.52,0,0,1-.46-.29.5.5,0,0,1,.25-.66,11.19,11.19,0,0,0,5.09-4.32.5.5,0,1,1,.85.52,12.13,12.13,0,0,1-5.52,4.71A.52.52,0,0,1,396.45,200.35Zm-35.05,0h-.06c-2.33-.3-4.7-.64-7-1a.5.5,0,0,1-.42-.57.51.51,0,0,1,.57-.42c2.32.36,4.67.7,7,1a.5.5,0,0,1-.06,1Zm-14-2.17h-.09c-2.31-.42-4.65-.88-6.95-1.36a.5.5,0,0,1,.2-1c2.3.48,4.63.94,6.93,1.36a.5.5,0,0,1,.41.58A.51.51,0,0,1,347.41,198.16Zm-13.85-2.9h-.12c-2.28-.54-4.6-1.12-6.87-1.72a.5.5,0,1,1,.25-1c2.27.6,4.57,1.18,6.85,1.71a.52.52,0,0,1,.38.61A.5.5,0,0,1,333.56,195.26Zm9.18-.94h-.08a.51.51,0,0,1-.42-.57A35.17,35.17,0,0,1,344,186.8a.5.5,0,0,1,.64-.3.5.5,0,0,1,.3.64,34,34,0,0,0-1.7,6.76A.5.5,0,0,1,342.74,194.32Zm-22.87-2.67a.36.36,0,0,1-.14,0c-2.25-.65-4.54-1.35-6.78-2.07a.49.49,0,0,1-.32-.63.5.5,0,0,1,.63-.32c2.23.71,4.5,1.41,6.75,2.06a.5.5,0,0,1,.34.62A.49.49,0,0,1,319.87,191.65Zm83.31-2.57a.51.51,0,0,1-.49-.41,10.46,10.46,0,0,0-3.54-5.61.49.49,0,0,1,0-.7.5.5,0,0,1,.71,0,11.37,11.37,0,0,1,3.85,6.16.5.5,0,0,1-.39.59Zm-96.78-1.75a.47.47,0,0,1-.17,0c-2.28-.81-4.51-1.65-6.65-2.49a.51.51,0,0,1-.28-.65.5.5,0,0,1,.65-.28c2.12.84,4.35,1.67,6.61,2.48a.5.5,0,0,1,.31.63A.5.5,0,0,1,306.4,187.33Zm-13.16-5.23a.46.46,0,0,1-.2,0c-2.2-1-4.36-2-6.41-3.05a.5.5,0,1,1,.45-.89c2,1,4.18,2,6.37,3a.5.5,0,0,1-.21,1Zm54.52-.87a.55.55,0,0,1-.3-.09.5.5,0,0,1-.1-.7,19.34,19.34,0,0,1,4.75-4.6l.52-.33a.5.5,0,1,1,.53.85l-.49.31a18.43,18.43,0,0,0-4.51,4.36A.51.51,0,0,1,347.76,181.23Zm45.87-2a.53.53,0,0,1-.24-.06c-.84-.45-1.66-.87-2.44-1.26-1.27-.62-2.58-1.2-3.9-1.72a.5.5,0,1,1,.36-.93c1.35.52,2.69,1.12,4,1.76.78.39,1.62.81,2.47,1.27a.51.51,0,0,1,.2.68A.49.49,0,0,1,393.63,179.23Zm-113-3.55a.45.45,0,0,1-.25-.07c-2.09-1.21-4.12-2.47-6-3.76a.5.5,0,0,1,.55-.83c1.9,1.27,3.91,2.53,6,3.73a.5.5,0,0,1-.25.93Zm99.85-1.57h-.12a50.54,50.54,0,0,0-6.91-1.14.5.5,0,0,1-.45-.54.51.51,0,0,1,.55-.45,50.91,50.91,0,0,1,7,1.16.5.5,0,0,1-.11,1Zm-21.05-.32a.51.51,0,0,1-.49-.39.5.5,0,0,1,.37-.6,36.42,36.42,0,0,1,5.34-.85c.58,0,1.17-.09,1.75-.12a.48.48,0,0,1,.53.47.5.5,0,0,1-.47.52c-.58,0-1.15.08-1.72.13a35.53,35.53,0,0,0-5.19.82Zm-90.53-6a.5.5,0,0,1-.31-.1c-1.9-1.49-3.72-3.05-5.41-4.62a.5.5,0,0,1,0-.71.51.51,0,0,1,.71,0c1.67,1.56,3.47,3.1,5.35,4.57a.5.5,0,0,1,.08.7A.48.48,0,0,1,268.9,167.78Zm-10.32-9.65a.52.52,0,0,1-.38-.17,61.24,61.24,0,0,1-4.39-5.62.51.51,0,0,1,.12-.7.52.52,0,0,1,.7.13A59.3,59.3,0,0,0,259,157.3a.5.5,0,0,1,0,.7A.5.5,0,0,1,258.58,158.13Zm-8-11.63a.49.49,0,0,1-.44-.28,50.58,50.58,0,0,1-2.83-6.55.51.51,0,0,1,.31-.64.5.5,0,0,1,.63.31,49.34,49.34,0,0,0,2.78,6.43.5.5,0,0,1-.22.67A.46.46,0,0,1,250.57,146.5ZM246,133.17a.49.49,0,0,1-.49-.42c-.1-.53-.18-1.06-.26-1.6a39.07,39.07,0,0,1-.37-5.32v-.21a.5.5,0,0,1,1,0v.2a37,37,0,0,0,.36,5.18c.08.53.16,1.05.25,1.57a.5.5,0,0,1-.4.58Zm.05-14.08h-.09a.5.5,0,0,1-.4-.58,42.46,42.46,0,0,1,1.89-6.9.52.52,0,0,1,.65-.3.5.5,0,0,1,.29.64,40.79,40.79,0,0,0-1.85,6.74A.49.49,0,0,1,246,119.09Zm4.88-13.21a.59.59,0,0,1-.25-.07.51.51,0,0,1-.18-.69,39.14,39.14,0,0,1,4.15-5.83.5.5,0,0,1,.75.65,39.43,39.43,0,0,0-4,5.69A.5.5,0,0,1,250.9,105.88Zm9.21-10.65a.5.5,0,0,1-.31-.89,37.43,37.43,0,0,1,6.05-3.83.5.5,0,0,1,.45.9,37,37,0,0,0-5.89,3.72A.49.49,0,0,1,260.11,95.23ZM321.56,89h0a53.78,53.78,0,0,1-7.11-.63.5.5,0,0,1,.14-1,52,52,0,0,0,7,.62.5.5,0,1,1,0,1Zm-48.94-.26a.5.5,0,0,1-.16-1,60.78,60.78,0,0,1,6.9-1.8.5.5,0,0,1,.59.4.48.48,0,0,1-.39.58,61,61,0,0,0-6.79,1.77Zm34.92-1.57h-.09c-2.15-.4-4.58-.85-7-1.19a.5.5,0,0,1-.42-.56.49.49,0,0,1,.56-.43c2.4.34,4.84.8,7,1.2a.5.5,0,0,1,.4.58A.51.51,0,0,1,307.54,87.2Zm-21.08-1.29a.5.5,0,0,1-.06-1c1.27-.14,2.63-.27,4-.38.88-.07,1.81-.11,2.76-.11h.33a.5.5,0,0,1,.49.51.52.52,0,0,1-.5.49h-.32c-.92,0-1.82,0-2.69.1-1.38.11-2.72.24-4,.39Z" style="fill: rgb(255, 255, 255); transform-origin: 324.295px 172.735px;" id="elaawd8g3g7z4" class="animable"></path><path d="M283.82,261.1h0c-1.19-.05-2.37-.14-3.51-.25a.49.49,0,0,1-.45-.54.48.48,0,0,1,.54-.45c1.13.11,2.29.19,3.47.24a.5.5,0,0,1,0,1Z" style="fill: rgb(255, 255, 255); transform-origin: 282.114px 260.478px;" id="elu8rzli2pxw" class="animable"></path></g></g></g><g id="freepik--Envelope--inject-1" class="animable" style="transform-origin: 358.72px 61.73px;"><g id="el3u159onjru6"><rect x="337.83" y="50.51" width="41.78" height="22.44" rx="3.22" style="fill: rgb(182, 73, 38); transform-origin: 358.72px 61.73px; transform: rotate(2.35deg);" class="animable"></rect></g><g id="el09azk8oty0ml"><rect x="337.83" y="50.51" width="41.78" height="22.44" rx="3.22" style="fill: rgb(255, 255, 255); opacity: 0.8; transform-origin: 358.72px 61.73px; transform: rotate(2.35deg);" class="animable"></rect></g><g id="el072gjxq8b6a"><path d="M358.57,66a.52.52,0,0,1-.29-.09L340,53.33a.5.5,0,0,1-.13-.7.51.51,0,0,1,.69-.13l18,12.42,19-10.9a.5.5,0,0,1,.68.19.5.5,0,0,1-.18.68l-19.22,11A.47.47,0,0,1,358.57,66Z" style="fill: rgb(182, 73, 38); opacity: 0.4; transform-origin: 359.043px 59.2093px;" class="animable"></path></g><g id="elledbshgg4a"><path d="M377.13,70.89a.47.47,0,0,1-.28-.09l-10.46-7.27a.5.5,0,0,1-.13-.7.51.51,0,0,1,.7-.12L377.42,70a.49.49,0,0,1,.12.69A.5.5,0,0,1,377.13,70.89Z" style="fill: rgb(182, 73, 38); opacity: 0.4; transform-origin: 371.901px 66.7554px;" class="animable"></path></g><g id="elbxqxja8fadm"><path d="M339.67,69.35a.5.5,0,0,1-.26-.94l11-6.38a.5.5,0,0,1,.5.86l-11,6.39A.47.47,0,0,1,339.67,69.35Z" style="fill: rgb(182, 73, 38); opacity: 0.4; transform-origin: 345.131px 65.6681px;" class="animable"></path></g></g><g id="freepik--paper-plane--inject-1" class="animable" style="transform-origin: 372.525px 70.61px;"><polygon points="412.22 59.8 341.85 75.85 332.83 81.42 412.22 59.8" style="fill: rgb(182, 73, 38); transform-origin: 372.525px 70.61px;" id="elk8wrx6db44" class="animable"></polygon><g id="elgdyz45g6m7c"><polyline points="341.85 75.85 332.83 81.42 412.22 59.8" style="opacity: 0.2; transform-origin: 372.525px 70.61px;" class="animable"></polyline></g><polygon points="412.22 59.8 341.85 75.85 348.47 80.72 412.22 59.8" style="fill: rgb(182, 73, 38); transform-origin: 377.035px 70.26px;" id="elf6ctqiyum3u" class="animable"></polygon><polygon points="412.22 59.8 351.89 72.14 348.47 80.72 412.22 59.8" style="fill: rgb(182, 73, 38); transform-origin: 380.345px 70.26px;" id="elkaai6gwvq2p" class="animable"></polygon><g id="elcbl7ca5a7t"><polygon points="412.22 59.8 351.89 72.14 348.47 80.72 412.22 59.8" style="opacity: 0.2; transform-origin: 380.345px 70.26px;" class="animable"></polygon></g><polygon points="412.22 59.8 351.89 72.14 370.89 79.03 412.22 59.8" style="fill: rgb(182, 73, 38); transform-origin: 382.055px 69.415px;" id="el89vv83j23p" class="animable"></polygon></g><defs>     <filter id="active" height="200%">         <feMorphology in="SourceAlpha" result="DILATED" operator="dilate" radius="2"></feMorphology>                <feFlood flood-color="#32DFEC" flood-opacity="1" result="PINK"></feFlood>        <feComposite in="PINK" in2="DILATED" operator="in" result="OUTLINE"></feComposite>        <feMerge>            <feMergeNode in="OUTLINE"></feMergeNode>            <feMergeNode in="SourceGraphic"></feMergeNode>        </feMerge>    </filter>    <filter id="hover" height="200%">        <feMorphology in="SourceAlpha" result="DILATED" operator="dilate" radius="2"></feMorphology>                <feFlood flood-color="#ff0000" flood-opacity="0.5" result="PINK"></feFlood>        <feComposite in="PINK" in2="DILATED" operator="in" result="OUTLINE"></feComposite>        <feMerge>            <feMergeNode in="OUTLINE"></feMergeNode>            <feMergeNode in="SourceGraphic"></feMergeNode>        </feMerge>            <feColorMatrix type="matrix" values="0   0   0   0   0                0   1   0   0   0                0   0   0   0   0                0   0   0   1   0 "></feColorMatrix>    </filter></defs></svg>